HIERARCHY
ROOT Hips
{
	OFFSET -0.001795 -0.223333 0.028219
	CHANNELS 6 Xposition Yposition Zposition Zrotation Yrotation Xrotation 
	JOINT LeftUpLeg
	{
		OFFSET 0.069520 -0.091406 -0.006815
		CHANNELS 3 Zrotation Yrotation Xrotation
		JOINT LeftLeg
		{
			OFFSET 0.034277 -0.375199 -0.004496
			CHANNELS 3 Zrotation Yrotation Xrotation
			JOINT LeftFoot
			{
				OFFSET -0.013596 -0.397961 -0.043693
				CHANNELS 3 Zrotation Yrotation Xrotation
				JOINT LeftToe
				{
					OFFSET 0.026358 -0.055791 0.119288
					CHANNELS 3 Zrotation Yrotation Xrotation
					End Site
					{
						OFFSET 0.000000 0.000000 0.000000
					}
				}
			}
		}
	}
	JOINT RightUpLeg
	{
		OFFSET -0.067670 -0.090522 -0.004320
		CHANNELS 3 Zrotation Yrotation Xrotation
		JOINT RightLeg
		{
			OFFSET -0.038290 -0.382569 -0.008850
			CHANNELS 3 Zrotation Yrotation Xrotation
			JOINT RightFoot
			{
				OFFSET 0.015774 -0.398415 -0.042312
				CHANNELS 3 Zrotation Yrotation Xrotation
				JOINT RightToe
				{
					OFFSET -0.025372 -0.048144 0.123348
					CHANNELS 3 Zrotation Yrotation Xrotation
					End Site
					{
						OFFSET 0.000000 0.000000 0.000000
					}
				}
			}
		}
	}
	JOINT Spine
	{
		OFFSET -0.002533 0.108963 -0.026696
		CHANNELS 3 Zrotation Yrotation Xrotation
		JOINT Spine1
		{
			OFFSET 0.005487 0.135180 0.001092
			CHANNELS 3 Zrotation Yrotation Xrotation
			JOINT Spine2
			{
				OFFSET 0.001457 0.052922 0.025425
				CHANNELS 3 Zrotation Yrotation Xrotation
				JOINT Neck
				{
					OFFSET -0.002778 0.213870 -0.042857
					CHANNELS 3 Zrotation Yrotation Xrotation
					JOINT Head
					{
						OFFSET 0.005152 0.064970 0.051349
						CHANNELS 3 Zrotation Yrotation Xrotation
						End Site
						{
							OFFSET 0.000000 0.000000 0.000000
						}
					}
				}
				JOINT LeftShoulder
				{
					OFFSET 0.078845 0.121749 -0.034090
					CHANNELS 3 Zrotation Yrotation Xrotation
					JOINT LeftArm
					{
						OFFSET 0.090977 0.030469 -0.008868
						CHANNELS 3 Zrotation Yrotation Xrotation
						JOINT LeftForeArm
						{
							OFFSET 0.259612 -0.012772 -0.027456
							CHANNELS 3 Zrotation Yrotation Xrotation
							JOINT LeftHand
							{
								OFFSET 0.249234 0.008986 -0.001171
								CHANNELS 3 Zrotation Yrotation Xrotation
								End Site
								{
									OFFSET 0.000000 0.000000 0.000000
								}
							}
						}
					}
				}
				JOINT RightShoulder
				{
					OFFSET -0.081759 0.118833 -0.038615
					CHANNELS 3 Zrotation Yrotation Xrotation
					JOINT RightArm
					{
						OFFSET -0.096012 0.032551 -0.009143
						CHANNELS 3 Zrotation Yrotation Xrotation
						JOINT RightForeArm
						{
							OFFSET -0.253742 -0.013329 -0.021401
							CHANNELS 3 Zrotation Yrotation Xrotation
							JOINT RightHand
							{
								OFFSET -0.255298 0.007772 -0.005559
								CHANNELS 3 Zrotation Yrotation Xrotation
								End Site
								{
									OFFSET 0.000000 0.000000 0.000000
								}
							}
						}
					}
				}
			}
		}
	}
}
MOTION
Frames: 17
Frame Time: 0.050000
-0.063492 0.933917 -0.050502 -1.054267 6.505247 2.441251 10.076136 -0.430952 -11.712878 0.268003 -0.675951 13.504525 -0.289493 2.446158 5.987450 0.000000 0.000000 0.000000 -6.352913 0.653258 -14.771384 -0.964006 0.732649 18.615611 1.691148 2.304710 4.157974 0.000000 0.000000 0.000000 7.648805 -0.502137 3.121789 -1.638537 0.845010 -2.449319 -4.452718 9.775167 16.696268 11.244370 -9.487400 -0.530287 0.000000 0.000000 0.000000 26.157531 1.012874 4.535428 -39.500314 -50.985393 6.904465 109.726040 -19.207672 -30.859302 0.000000 0.000000 0.000000 -17.246790 -7.304809 -2.953147 63.994690 39.752282 22.013165 -124.422497 31.032257 -37.154379 0.000000 0.000000 0.000000 
-0.063963 0.937744 -0.052393 -1.149118 7.622569 3.302771 10.202493 -0.490106 -12.405647 0.530499 -0.669822 12.130144 -1.329209 1.055079 6.934334 0.000000 0.000000 0.000000 -6.363627 0.621137 -14.334860 -0.575171 0.529314 16.036629 1.071899 0.454868 5.397012 0.000000 0.000000 0.000000 7.601517 -0.434677 2.263361 -1.365653 0.733289 -2.663631 -3.951387 9.551105 16.365872 11.278768 -9.706612 0.023534 0.000000 0.000000 0.000000 26.882508 1.198945 4.722315 -37.459913 -53.261750 6.634398 108.798142 -14.677206 -24.725864 0.000000 0.000000 0.000000 -18.242160 -6.712687 -2.869322 62.432707 40.264451 21.888161 -123.768647 28.994964 -33.150957 0.000000 0.000000 0.000000 
-0.064534 0.939105 -0.054285 -1.075609 8.465195 4.131867 10.051277 -0.565338 -13.437862 0.560151 -0.659632 11.667222 -1.519141 0.686156 6.772042 0.000000 0.000000 0.000000 -6.647952 0.574384 -14.253257 -0.219763 0.382498 14.165833 0.851509 -0.341780 6.445083 0.000000 0.000000 0.000000 7.301891 -0.396463 1.809586 -0.956875 0.553764 -2.651314 -3.780587 9.912614 15.750692 11.309365 -9.895098 0.532358 0.000000 0.000000 0.000000 25.930128 1.425277 4.777736 -36.473857 -54.620514 6.389804 108.958295 -11.735694 -21.324803 0.000000 0.000000 0.000000 -18.200478 -6.569330 -2.961489 62.743540 40.473263 22.540876 -123.786945 26.965107 -29.448265 0.000000 0.000000 0.000000 
-0.065194 0.938319 -0.056142 -1.013153 10.134922 4.659863 9.807304 -0.683932 -14.787439 0.745432 -0.737605 11.901600 -2.153663 -0.454854 6.614134 0.000000 0.000000 0.000000 -6.559704 0.543265 -14.292981 -0.093856 0.297070 13.559872 0.142703 -1.730878 6.387620 0.000000 0.000000 0.000000 7.136461 -0.367496 1.409673 -0.722307 0.422654 -1.921169 -3.573951 9.743894 14.771263 11.155594 -9.596258 0.238749 0.000000 0.000000 0.000000 24.502181 1.664218 4.725703 -35.450073 -56.359326 6.280495 108.906301 -10.326959 -19.690616 0.000000 0.000000 0.000000 -17.729934 -5.862832 -2.896409 62.893786 41.483737 23.576846 -124.476440 25.367654 -26.985389 0.000000 0.000000 0.000000 
-0.065698 0.936636 -0.058324 -0.942713 11.174608 4.778361 9.672177 -0.763683 -15.746087 0.736099 -0.788436 12.409337 -2.313120 -1.082017 5.923807 0.000000 0.000000 0.000000 -6.781686 0.485813 -14.445167 -0.012428 0.248451 13.905196 -0.144983 -2.197037 6.096196 0.000000 0.000000 0.000000 7.129059 -0.374740 1.411259 -0.477613 0.311253 -1.837733 -3.349111 10.525957 14.531530 11.704190 -10.106983 0.293600 0.000000 0.000000 0.000000 24.159802 1.437842 4.982214 -33.060424 -58.056992 5.139926 108.228028 -9.110989 -18.536452 0.000000 0.000000 0.000000 -18.169310 -5.307025 -3.022249 62.985937 42.917689 25.221340 -124.201044 22.853475 -21.901017 0.000000 0.000000 0.000000 
-0.065371 0.934751 -0.060906 -0.680899 12.123970 4.724715 9.072730 -0.869473 -16.469599 0.999402 -0.883659 12.750388 -2.663750 -1.798296 5.748977 0.000000 0.000000 0.000000 -7.047108 0.421530 -14.803576 -0.348633 0.306742 14.945035 -0.260185 -2.253525 5.602078 0.000000 0.000000 0.000000 7.311414 -0.392208 1.458415 -0.626514 0.366947 -1.582312 -2.653826 11.337389 14.636658 11.955562 -10.030758 -0.404885 0.000000 0.000000 0.000000 23.741314 0.914900 5.210436 -31.143437 -58.865667 3.987189 107.799321 -8.140976 -17.777149 0.000000 0.000000 0.000000 -20.200441 -3.985326 -3.058710 62.793153 45.350715 27.647868 -122.999333 20.388789 -16.701826 0.000000 0.000000 0.000000 
-0.063788 0.933970 -0.063582 -0.340789 12.898616 4.630450 8.579040 -0.965165 -17.116365 1.171954 -0.988214 13.416290 -2.888510 -2.103481 5.873307 0.000000 0.000000 0.000000 -7.630321 0.308777 -15.319281 -0.230709 0.245073 16.025429 -0.598434 -2.975335 5.672025 0.000000 0.000000 0.000000 7.635156 -0.432235 1.656799 -0.793756 0.430227 -1.337831 -2.226527 12.427663 14.522006 12.638175 -10.665602 -0.353115 0.000000 0.000000 0.000000 23.552724 0.394299 5.533649 -29.350478 -58.839567 2.687841 107.203482 -7.962888 -18.278749 0.000000 0.000000 0.000000 -22.605526 -2.618458 -3.193022 61.803211 47.464625 29.576885 -120.577535 17.034447 -9.746478 0.000000 0.000000 0.000000 
-0.061019 0.933951 -0.066398 0.276190 13.172410 4.598415 7.439431 -1.090429 -17.448713 1.241457 -1.059160 13.987854 -3.020618 -2.285263 5.954452 0.000000 0.000000 0.000000 -8.560738 0.153691 -15.524223 -0.367139 0.268362 16.681545 -0.690952 -3.242695 6.002349 0.000000 0.000000 0.000000 7.763587 -0.472930 1.979276 -1.181860 0.622918 -1.625837 -1.572924 14.211166 15.037510 13.422181 -10.977588 -1.219679 0.000000 0.000000 0.000000 23.555131 0.184366 5.925602 -29.101352 -59.036377 1.828603 106.672600 -8.688517 -19.992377 0.000000 0.000000 0.000000 -25.251232 -1.556408 -3.603859 61.535248 47.806005 30.843850 -118.151952 14.291523 -3.824079 0.000000 0.000000 0.000000 
-0.058297 0.934268 -0.069032 0.865792 13.162064 4.364377 6.459623 -1.166230 -17.313261 1.262660 -1.116534 14.551639 -3.138231 -2.325643 6.235387 0.000000 0.000000 0.000000 -9.572239 -0.016922 -15.788672 -0.311186 0.241003 17.992918 -0.628496 -3.049056 5.700959 0.000000 0.000000 0.000000 7.811606 -0.535557 2.594885 -1.508727 0.746315 -1.147902 -1.175285 14.735657 15.092666 13.898100 -11.084403 -1.916498 0.000000 0.000000 0.000000 23.618888 0.582277 5.981540 -30.172884 -59.298977 2.114948 107.281261 -9.298731 -21.014115 0.000000 0.000000 0.000000 -26.777720 -0.826558 -3.682478 61.760523 48.247897 31.765879 -116.628728 12.748259 -1.274045 0.000000 0.000000 0.000000 
-0.056703 0.934436 -0.071226 0.978334 13.021676 3.995861 6.164984 -1.198824 -17.496509 1.096515 -1.190005 15.789676 -3.173993 -2.411482 6.233148 0.000000 0.000000 0.000000 -9.867087 -0.076503 -16.172477 -0.154744 0.182005 19.494649 -0.362749 -2.499662 5.765281 0.000000 0.000000 0.000000 7.606445 -0.634626 3.689123 -1.297562 0.701716 -2.072411 -1.057234 14.533162 15.830691 13.800077 -10.682928 -2.622204 0.000000 0.000000 0.000000 24.287602 0.814187 6.021908 -31.648884 -59.334916 2.673491 109.231515 -9.484121 -21.561039 0.000000 0.000000 0.000000 -26.716911 -1.522807 -3.814988 63.896298 47.679387 32.606827 -116.718766 12.799659 -1.468084 0.000000 0.000000 0.000000 
-0.056787 0.934593 -0.072836 0.853537 12.181277 3.485270 6.034381 -1.190206 -17.621367 1.355162 -1.379438 17.394625 -3.050357 -2.482194 5.853267 0.000000 0.000000 0.000000 -9.580340 -0.008295 -16.481958 -0.455127 0.299490 21.170524 0.215023 -1.218146 5.494813 0.000000 0.000000 0.000000 6.977239 -0.657614 4.470454 -0.986711 0.575156 -2.311949 -1.160828 12.942371 16.493602 12.829410 -9.651887 -3.154030 0.000000 0.000000 0.000000 25.462757 1.706474 5.697602 -33.311469 -59.401295 4.023587 109.735004 -8.739081 -19.541038 0.000000 0.000000 0.000000 -25.522609 -2.072448 -3.441980 65.929968 47.847936 32.931074 -116.885741 13.917510 -4.326658 0.000000 0.000000 0.000000 
-0.057811 0.933101 -0.073827 0.256036 11.729096 3.000594 7.023137 -1.111136 -18.222321 0.847964 -1.462738 19.822142 -2.546606 -1.768695 5.510756 0.000000 0.000000 0.000000 -8.963505 0.093509 -17.104279 -0.429677 0.297776 22.756334 0.701838 -0.156534 5.431918 0.000000 0.000000 0.000000 6.428864 -0.688331 5.246471 -0.363986 0.332498 -2.944607 -1.595127 10.253585 17.144090 11.825039 -8.962042 -3.023863 0.000000 0.000000 0.000000 26.698106 1.366614 5.273364 -34.344470 -58.961705 5.435740 110.925801 -8.280823 -17.759325 0.000000 0.000000 0.000000 -22.967640 -3.142711 -2.936170 67.726454 47.825606 32.301674 -119.279608 17.531624 -11.859111 0.000000 0.000000 0.000000 
-0.059089 0.930017 -0.074254 -0.236330 10.746201 2.501911 7.785017 -0.993542 -18.321822 0.163744 -1.395442 21.669380 -1.979257 -1.419119 4.374361 0.000000 0.000000 0.000000 -8.069099 0.272669 -17.840060 -0.769251 0.463316 24.565102 1.305487 1.317117 4.883627 0.000000 0.000000 0.000000 5.906759 -0.713385 6.009346 0.284509 0.077391 -3.592066 -2.348965 8.562566 17.594577 11.164772 -8.815607 -2.167852 0.000000 0.000000 0.000000 27.732714 0.632582 4.962644 -34.872106 -58.153466 6.316029 110.968225 -8.662241 -17.268974 0.000000 0.000000 0.000000 -20.332488 -3.964582 -2.589747 67.833351 46.967195 30.248407 -121.153644 21.500539 -19.724710 0.000000 0.000000 0.000000 
-0.060123 0.925672 -0.074742 -0.735169 9.036416 1.727960 8.627562 -0.824024 -18.420052 -0.399466 -1.363539 24.476290 -0.990321 -0.049372 3.500086 0.000000 0.000000 0.000000 -7.301327 0.467870 -18.566044 -1.202810 0.752130 26.561710 1.798179 2.487210 4.487199 0.000000 0.000000 0.000000 5.558392 -0.752134 6.901162 0.435158 -0.023112 -3.227111 -2.843399 7.716358 17.499355 10.611925 -8.844124 -0.901242 0.000000 0.000000 0.000000 28.847018 -0.169475 4.725519 -33.722908 -57.366850 6.360768 110.146785 -9.346961 -17.288028 0.000000 0.000000 0.000000 -18.438166 -4.835391 -2.375653 66.930638 47.022452 28.667044 -121.697832 24.837674 -26.268471 0.000000 0.000000 0.000000 
-0.060764 0.920679 -0.075485 -0.957858 8.040501 1.193789 9.234215 -0.701219 -18.446198 -1.093372 -1.194557 26.160118 -0.020176 1.437349 2.724545 0.000000 0.000000 0.000000 -6.839592 0.589165 -19.113713 -1.679145 1.029870 27.919552 2.084757 3.410686 3.777612 0.000000 0.000000 0.000000 5.423852 -0.793040 7.576320 0.538799 -0.068917 -3.380786 -3.305054 6.948841 17.922432 10.374613 -8.921100 -0.230182 0.000000 0.000000 0.000000 30.495768 -1.159492 4.608460 -32.852526 -56.693989 6.293016 109.575429 -9.724777 -17.112537 0.000000 0.000000 0.000000 -17.619005 -5.354522 -2.249843 63.189883 46.423315 25.406428 -123.210345 27.267376 -31.655751 0.000000 0.000000 0.000000 
-0.060926 0.917292 -0.076342 -1.066115 6.649372 0.790035 9.314837 -0.615463 -18.248520 -1.036362 -1.176297 27.204201 0.617841 2.125712 1.590034 0.000000 0.000000 0.000000 -6.299033 0.755325 -19.992893 -2.368627 1.448302 29.047757 2.412660 4.344880 3.320192 0.000000 0.000000 0.000000 5.403133 -0.828403 8.120440 0.393436 -0.043048 -2.851934 -3.389672 6.747884 17.848539 10.057005 -9.123478 1.166390 0.000000 0.000000 0.000000 31.344366 -1.173134 4.422649 -33.395557 -55.824154 6.715916 109.262671 -9.521669 -16.303181 0.000000 0.000000 0.000000 -17.159819 -5.860100 -2.181659 60.487233 46.572802 23.593734 -123.366293 28.135785 -33.681283 0.000000 0.000000 0.000000 
-0.060928 0.915696 -0.076998 -1.042828 5.280738 0.669581 9.539503 -0.513561 -17.901029 -1.372232 -0.937044 27.126797 1.083148 3.224311 1.976363 0.000000 0.000000 0.000000 -6.201132 0.849508 -20.513895 -2.925053 1.806263 29.251669 2.831722 5.026127 3.799839 0.000000 0.000000 0.000000 5.567209 -0.857552 8.397718 0.121547 0.051957 -2.485354 -3.508484 6.590456 17.914826 9.843814 -8.823249 0.833312 0.000000 0.000000 0.000000 31.060700 -1.122422 4.143776 -36.002254 -55.058868 7.993121 110.180978 -9.624993 -16.011129 0.000000 0.000000 0.000000 -17.007488 -6.360676 -2.126024 60.595340 47.755944 24.068431 -123.521736 28.363537 -34.819550 0.000000 0.000000 0.000000 
